PathFileType	4	(X/Y/Z)	C:\Users\WrightLab\Desktop\Jo\P5V134.trc
DataRate	CameraRate	NumFrames	NumMarkers	Units	OrigDataRate	OrigDataStartFrame	OrigNumFrames
100.00	100.00	       20	19	mm	100.00	133	       529
Frame#	Time	Headset_Front			Headset_Back			Headset_Left			Headset_Right			Left_Shoulder			Right_Shoulder			Sternum			C7			Left Elbow			Right Elbow			Left Wrist			Right Wrist			Left ASIS			Right ASIS			S2			Left Knee			Right Knee			Left Ankle			Right Ankle			
		X1	Y1	Z1	X2	Y2	Z2	X3	Y3	Z3	X4	Y4	Z4	X5	Y5	Z5	X6	Y6	Z6	X7	Y7	Z7	X8	Y8	Z8	X9	Y9	Z9	X10	Y10	Z10	X11	Y11	Z11	X12	Y12	Z12	X13	Y13	Z13	X14	Y14	Z14	X15	Y15	Z15	X16	Y16	Z16	X17	Y17	Z17	X18	Y18	Z18	X19	Y19	Z19	

133	1.320	216.40518	1733.78064	-711.60498	337.18878	1629.78882	-630.88922							424.16592	1483.07129	-851.61078	55.83694	1405.59705	-670.74634	291.06805	1296.94153	-677.20514	176.73828	1491.90295	-859.47015	498.34921	1218.33948	-917.11719	-39.05442	1143.64014	-753.52100	479.69873	1154.57092	-708.77002	65.38741	1004.03082	-589.90155	433.20425	913.80890	-771.53271	193.38202	915.25385	-630.84558	198.06384	960.25824	-965.94006	345.75870	461.54657	-903.31665	326.60226	529.10626	-602.76666				326.29590	86.20023	-736.04523	
134	1.330	218.86311	1735.46057	-704.27014	339.57858	1632.14380	-622.99219							428.22012	1485.88904	-842.96686	58.90332	1407.00269	-663.52551	295.82217	1299.38782	-668.84070	180.83922	1493.10828	-851.79102	503.52661	1221.23010	-907.01794	-34.67931	1144.41162	-747.09534	484.03757	1156.11035	-699.96143	70.55785	1005.50659	-583.10168	439.97003	916.74158	-761.26825	197.38110	917.00055	-623.49054	205.40381	961.25769	-957.47296	362.08823	460.36951	-890.26337	324.16861	526.37207	-598.37329				326.31396	86.18085	-736.03668	
135	1.340	221.30023	1737.35632	-696.66742	342.13846	1634.18005	-614.83240							432.26569	1488.56726	-833.91248	63.61058	1407.90161	-657.01080	298.58392	1301.03259	-659.50836	184.81137	1494.54590	-844.59753	508.91507	1223.38318	-896.08392	-30.95364	1145.31067	-741.06573	486.85370	1158.08643	-689.87366	73.84085	1007.15564	-576.58643	446.06177	919.59674	-751.60907	200.67307	917.92548	-615.68732	213.07945	962.29852	-948.54333	377.87112	459.01584	-875.62134	321.25317	523.85272	-593.85803				326.32037	86.17915	-736.03461	
136	1.350	223.97836	1738.83691	-688.67889	344.61685	1636.60779	-606.30719							436.39749	1491.20837	-825.02600	65.94420	1409.33313	-650.48077	302.76410	1303.95544	-651.49927	188.98537	1496.18665	-837.00745	514.83856	1225.63757	-885.42773	-26.12094	1146.48975	-734.40234	490.38077	1160.30078	-679.30811	77.63632	1007.26593	-568.59515	451.86847	922.04352	-741.75995	204.79187	919.42810	-608.20612	220.13733	963.70477	-940.05591	394.43878	459.71671	-861.89221	317.66418	520.08307	-591.04364				326.31122	86.17436	-736.03619	
137	1.360	226.35152	1740.47607	-682.11102	346.80707	1638.88403	-599.25421							440.77597	1493.18408	-816.09259	70.47006	1410.08643	-643.84094	306.33817	1304.41736	-642.37115	193.30956	1497.60413	-829.50281	520.29724	1228.08447	-876.35712	-22.65221	1147.19177	-727.92853	493.55771	1162.98254	-668.74792	81.84040	1008.29559	-562.61890	456.87381	923.90417	-732.18988	208.31242	921.02545	-600.31818	227.33488	964.42395	-931.60852	410.76260	461.16074	-847.61597	314.32019	516.91290	-587.86743				326.31107	86.17191	-736.03583	
138	1.370	228.82347	1741.95593	-675.09497	349.27536	1640.98999	-590.89899							444.78961	1495.41309	-807.77673	73.28592	1410.91296	-637.60516	310.16473	1307.67224	-634.85962	197.60338	1498.99512	-822.16760	525.10638	1230.15100	-866.05829	-18.52942	1147.65015	-721.55133	496.86877	1164.73792	-658.11060	86.06357	1009.43304	-555.27771	461.84390	925.74670	-722.39362	211.77119	922.37360	-592.85956	233.62004	964.97675	-922.42120	426.64108	462.99072	-832.75836	310.10086	513.13300	-585.04712				326.29105	86.17814	-736.04248	
139	1.380	231.17603	1743.34766	-668.73071	351.63568	1643.26038	-582.91821							449.24500	1497.03027	-798.97455	76.98358	1412.14319	-630.96271	313.60190	1308.26135	-625.90857	201.94081	1500.04333	-814.87390	530.94672	1231.68762	-856.04895	-14.54923	1149.01563	-715.95392	501.21381	1167.21973	-649.42114	89.73837	1011.19019	-548.23340	467.60428	927.35864	-713.07416	214.24825	923.34784	-585.34662	239.84499	966.39197	-913.87909	442.30139	465.30234	-817.44727	305.41742	508.59708	-582.59790				326.00916	85.74846	-736.22943	
140	1.390	233.70845	1744.70251	-662.10791	353.99878	1645.18152	-574.52985							453.77075	1498.67517	-789.46161	80.32466	1412.56641	-624.57220	315.54849	1309.48315	-616.70190	206.47456	1501.50305	-808.11786	535.85284	1233.64966	-846.35583	-10.09129	1149.76697	-710.12012	504.24277	1168.80591	-639.22272	93.21291	1012.49213	-541.95557	472.43213	928.59613	-703.96161	217.46707	924.95404	-578.01013	246.64696	967.52698	-904.91864	457.90097	468.60669	-802.55841	300.76581	505.06354	-580.11133				326.27814	86.18863	-736.04797	
141	1.400	236.07500	1745.91516	-655.29456	356.19229	1647.31970	-566.52429							458.26050	1499.94080	-779.93817	83.08887	1414.10229	-618.09515	320.17593	1311.20337	-610.21136	211.42593	1502.80237	-800.58887	541.63538	1235.00061	-836.69397	-5.15454	1150.70679	-703.26416	508.52734	1170.89905	-629.93805	96.79195	1014.05750	-535.04492	477.86069	930.61743	-694.90057	219.08026	925.92279	-570.17017	252.58841	968.58704	-895.96906	472.17267	471.14960	-785.51538	295.55664	501.51630	-578.48895				326.30194	86.56843	-735.47284	
142	1.410	238.77359	1747.13330	-647.65863	358.33356	1649.51721	-558.58276							462.99527	1500.94470	-770.57288	86.87541	1415.32922	-612.31683	322.80341	1312.89734	-600.45093	215.91193	1503.75684	-793.25372	546.57422	1236.28674	-827.08002	-1.75844	1152.16675	-697.89520	511.79718	1172.44043	-620.32825	99.97221	1015.78168	-528.07617	482.14456	932.18060	-685.85437	221.09067	927.50085	-562.32458	258.37057	969.44067	-887.37939	484.21854	474.87796	-765.93787	289.79315	497.73364	-577.78430				326.08759	86.12341	-735.68329	
143	1.420	241.26985	1748.38794	-640.82568	360.40475	1651.69775	-550.58179							467.63733	1501.97607	-760.46021	89.14394	1416.08118	-606.21210	325.04196	1313.33167	-591.97382	220.64348	1505.06323	-785.71600	551.30432	1236.97754	-817.30176	3.57824	1152.62317	-691.15625	515.94476	1174.42261	-610.62378	102.60928	1017.38446	-521.72662	486.18988	932.72369	-676.33783	220.59749	927.95129	-556.07227	264.26825	971.05859	-878.32928	495.17120	480.27991	-744.12451	285.39838	494.92233	-575.61426				326.34030	86.54688	-735.45825	
144	1.430	243.61458	1749.74158	-634.55756	362.50638	1653.60864	-542.40784							471.98578	1503.05432	-751.18732	91.14936	1417.72607	-600.81433	328.79050	1315.36877	-584.25458	225.38835	1506.27185	-778.23865	555.88593	1238.01294	-807.12866	8.41241	1153.83032	-686.13428	519.50494	1176.07764	-601.45770	106.08061	1020.09894	-515.26776	490.02682	934.39661	-666.01355	220.60764	927.43994	-550.68610	269.95953	972.54303	-872.13031	504.90274	485.04233	-722.39111	279.11737	492.56393	-574.33252				326.32874	86.56928	-735.46564	
145	1.440	246.06902	1750.79663	-628.14514	364.58459	1655.65747	-534.20807							476.55280	1503.74756	-741.24481	95.29606	1418.97083	-594.35834	330.89563	1316.37854	-574.96472	230.38571	1507.41443	-770.91644	560.55072	1238.93213	-797.68195	11.93852	1154.98535	-681.00171	522.99854	1177.79846	-590.90765	110.10299	1021.15668	-508.95145	493.20325	935.00085	-656.03644	221.89523	930.11292	-540.86792	276.04337	973.83020	-863.87811	517.81604	491.98917	-701.01996	273.58408	489.77658	-574.08496	306.79367	245.48636	-1019.38763	326.34271	86.57612	-735.46307	
146	1.450	248.58026	1751.70044	-621.68085	366.66629	1657.63513	-526.17993							481.06680	1504.21851	-731.03906	97.37072	1420.12646	-589.08588	331.96442	1315.95935	-564.98883	234.83510	1508.50549	-763.45856	565.04980	1240.01147	-788.23492	16.48422	1155.79797	-675.28540	527.03009	1178.84326	-582.04236	111.85662	1023.49823	-502.20364	495.84396	936.02515	-644.17120	220.97681	931.25366	-533.93762	282.39850	974.38965	-856.83765	528.78857	497.93713	-682.21332	268.21457	487.22153	-573.13324	324.34204	247.54147	-1000.40778	326.37589	86.57466	-735.45367	
147	1.460	251.20082	1752.68823	-614.70819	368.69827	1659.74585	-517.60895							485.25409	1504.96790	-721.25311	99.19663	1422.03613	-583.19727	333.10565	1317.46399	-555.74902	239.55003	1509.69238	-756.49011	569.30353	1241.31287	-778.99457	20.26646	1156.98706	-670.53693	530.57196	1179.97278	-571.35822	115.60699	1025.56799	-495.12967	498.12238	937.46600	-632.40991	219.66878	932.14655	-527.16437	288.93460	975.40753	-848.98865	541.13440	504.28204	-663.80750	263.33643	485.33383	-571.19592	342.41849	247.31024	-980.42957	326.36591	86.60435	-735.46191	
148	1.470	253.67760	1753.89368	-608.42914	370.74142	1661.26453	-509.44061							489.49109	1505.60925	-710.85492	100.69248	1423.21997	-578.35205	335.05493	1318.74231	-546.44043	243.97035	1510.78552	-749.35626	573.64160	1241.94922	-768.71899	24.64672	1158.37671	-665.95435	532.96094	1181.02393	-561.35846	117.73820	1026.76770	-488.78809	500.55630	938.74579	-620.43658	217.54919	931.61133	-522.13232	295.76126	976.41113	-843.05322	552.77777	510.20544	-645.90186	258.73615	482.90094	-570.08075	359.46283	246.64400	-959.94537	326.42319	87.01894	-734.88416	
149	1.480	256.39490	1754.79590	-601.16681	372.73279	1662.73450	-501.38724							493.32379	1506.16406	-700.85083	103.77716	1424.55847	-571.84656	336.18927	1321.18665	-536.83020	248.64731	1511.45874	-741.59534	577.94855	1242.02625	-758.53723	27.99603	1159.39001	-660.62054	538.59253	1181.60046	-552.71722	120.22064	1028.43555	-481.97800	501.83298	938.72736	-608.91907	218.32397	932.38477	-515.09906	303.13156	976.25958	-835.96222	562.63025	515.52466	-629.16046	254.05164	481.00259	-569.17914	378.04190	244.17409	-938.33508	326.69012	87.51311	-734.71338	
150	1.490	259.13916	1755.51208	-594.01593	374.67242	1664.39832	-493.07031							497.48007	1506.28088	-690.18506	106.08485	1425.67883	-565.93066				253.28091	1512.53760	-734.44861	582.40686	1242.18262	-747.82678	32.13465	1160.78992	-655.23938	540.66785	1183.11243	-540.98682	122.31767	1030.08008	-475.78683	502.62418	939.04858	-597.01550	217.48755	933.18298	-509.40579	309.32178	976.77203	-829.77057	571.14197	521.56482	-613.58423	250.08900	479.72964	-567.55328	398.17639	241.83698	-916.76263	326.82959	88.05135	-734.22968	
151	1.500	261.86887	1756.36230	-586.91144	376.53894	1665.70325	-484.87686							501.43137	1506.49817	-679.89594	108.09707	1426.71777	-560.46741				257.50656	1513.08545	-727.07404	584.51837	1241.78613	-736.94135	35.90744	1161.48315	-649.96057	543.87311	1184.02478	-532.51953	124.47800	1032.06360	-468.69119	503.92004	939.31470	-585.24908	217.86230	934.21313	-503.87405	316.50674	977.06482	-822.83606	578.02832	526.65967	-598.47302	247.49190	478.33463	-566.38318	416.06522	236.51138	-894.54596	326.44431	88.81598	-734.43225	
152	1.510	264.28854	1757.47852	-580.58856	378.33466	1666.97668	-477.16669							504.96683	1506.59460	-669.64862	109.28982	1427.77710	-554.50574				261.89474	1513.97815	-719.08441	588.65710	1242.14685	-726.84180	39.16510	1162.32703	-644.89935	546.82159	1184.51672	-522.33868	125.94650	1033.32825	-462.56192	504.10367	939.09991	-573.16687	216.44807	934.68469	-499.49866	322.88434	977.53247	-815.06049	584.89111	531.68829	-584.44257	244.66393	476.97589	-565.42773	436.17856	231.29808	-871.31165	326.47397	89.67906	-734.71259	
